<mxfile host="app.diagrams.net" modified="2022-05-03T18:59:51.119Z" agent="5.0 (Windows NT 10.0; Win64; x64) AppleWebKit/537.36 (KHTML, like Gecko) Chrome/101.0.4951.54 Safari/537.36" etag="F2vLiT2MDN-kWS9fI2TX" version="17.5.0" type="github" pages="2">
  <diagram id="zzye00l6cjTFEzyAzEfS" name="Page-1">
    <mxGraphModel dx="1422" dy="794" grid="1" gridSize="10" guides="1" tooltips="1" connect="1" arrows="1" fold="1" page="1" pageScale="1" pageWidth="827" pageHeight="1169" math="0" shadow="0">
      <root>
        <mxCell id="0" />
        <mxCell id="1" parent="0" />
        <mxCell id="3ovZpFwWh21vao-ExUY7-5" style="edgeStyle=orthogonalEdgeStyle;rounded=0;orthogonalLoop=1;jettySize=auto;html=1;exitX=0;exitY=0.5;exitDx=0;exitDy=0;" parent="1" source="3ovZpFwWh21vao-ExUY7-8" edge="1">
          <mxGeometry relative="1" as="geometry">
            <mxPoint x="250" y="90" as="targetPoint" />
            <mxPoint x="354" y="155" as="sourcePoint" />
          </mxGeometry>
        </mxCell>
        <mxCell id="3ovZpFwWh21vao-ExUY7-15" style="edgeStyle=orthogonalEdgeStyle;rounded=0;orthogonalLoop=1;jettySize=auto;html=1;entryX=0.5;entryY=0;entryDx=0;entryDy=0;entryPerimeter=0;" parent="1" source="3ovZpFwWh21vao-ExUY7-8" target="3ovZpFwWh21vao-ExUY7-14" edge="1">
          <mxGeometry relative="1" as="geometry" />
        </mxCell>
        <mxCell id="3ovZpFwWh21vao-ExUY7-8" value="Persona" style="whiteSpace=wrap;html=1;align=center;" parent="1" vertex="1">
          <mxGeometry x="330" y="130" width="100" height="40" as="geometry" />
        </mxCell>
        <mxCell id="3ovZpFwWh21vao-ExUY7-9" value="Rut" style="ellipse;whiteSpace=wrap;html=1;align=center;fontStyle=4;" parent="1" vertex="1">
          <mxGeometry x="200" y="50" width="100" height="40" as="geometry" />
        </mxCell>
        <mxCell id="3ovZpFwWh21vao-ExUY7-11" style="edgeStyle=orthogonalEdgeStyle;rounded=0;orthogonalLoop=1;jettySize=auto;html=1;entryX=0.5;entryY=0;entryDx=0;entryDy=0;" parent="1" source="3ovZpFwWh21vao-ExUY7-10" target="3ovZpFwWh21vao-ExUY7-8" edge="1">
          <mxGeometry relative="1" as="geometry" />
        </mxCell>
        <mxCell id="3ovZpFwWh21vao-ExUY7-10" value="Correos" style="ellipse;shape=doubleEllipse;margin=3;whiteSpace=wrap;html=1;align=center;" parent="1" vertex="1">
          <mxGeometry x="330" y="30" width="100" height="40" as="geometry" />
        </mxCell>
        <mxCell id="3ovZpFwWh21vao-ExUY7-13" style="edgeStyle=orthogonalEdgeStyle;rounded=0;orthogonalLoop=1;jettySize=auto;html=1;entryX=1;entryY=0.5;entryDx=0;entryDy=0;" parent="1" source="3ovZpFwWh21vao-ExUY7-12" target="3ovZpFwWh21vao-ExUY7-8" edge="1">
          <mxGeometry relative="1" as="geometry">
            <Array as="points">
              <mxPoint x="520" y="150" />
            </Array>
          </mxGeometry>
        </mxCell>
        <mxCell id="3ovZpFwWh21vao-ExUY7-12" value="Teléfonos" style="ellipse;shape=doubleEllipse;margin=3;whiteSpace=wrap;html=1;align=center;" parent="1" vertex="1">
          <mxGeometry x="460" y="50" width="100" height="40" as="geometry" />
        </mxCell>
        <mxCell id="3ovZpFwWh21vao-ExUY7-16" style="edgeStyle=orthogonalEdgeStyle;rounded=0;orthogonalLoop=1;jettySize=auto;html=1;exitX=0.01;exitY=0.97;exitDx=0;exitDy=0;exitPerimeter=0;entryX=0.5;entryY=0;entryDx=0;entryDy=0;" parent="1" source="3ovZpFwWh21vao-ExUY7-14" target="3ovZpFwWh21vao-ExUY7-17" edge="1">
          <mxGeometry relative="1" as="geometry">
            <mxPoint x="170" y="280" as="targetPoint" />
            <Array as="points">
              <mxPoint x="280" y="229" />
            </Array>
          </mxGeometry>
        </mxCell>
        <mxCell id="3ovZpFwWh21vao-ExUY7-19" value="" style="edgeStyle=orthogonalEdgeStyle;rounded=0;orthogonalLoop=1;jettySize=auto;html=1;entryX=0.5;entryY=0;entryDx=0;entryDy=0;exitX=0.99;exitY=0.97;exitDx=0;exitDy=0;exitPerimeter=0;" parent="1" source="3ovZpFwWh21vao-ExUY7-14" target="3ovZpFwWh21vao-ExUY7-20" edge="1">
          <mxGeometry relative="1" as="geometry">
            <mxPoint x="447.5" y="215" as="targetPoint" />
            <Array as="points">
              <mxPoint x="550" y="229" />
            </Array>
          </mxGeometry>
        </mxCell>
        <mxCell id="3ovZpFwWh21vao-ExUY7-14" value="Es" style="strokeWidth=2;html=1;shape=mxgraph.flowchart.extract_or_measurement;whiteSpace=wrap;" parent="1" vertex="1">
          <mxGeometry x="356.25" y="200" width="47.5" height="30" as="geometry" />
        </mxCell>
        <mxCell id="3ovZpFwWh21vao-ExUY7-17" value="Natural" style="whiteSpace=wrap;html=1;align=center;" parent="1" vertex="1">
          <mxGeometry x="230" y="280" width="100" height="40" as="geometry" />
        </mxCell>
        <mxCell id="3ovZpFwWh21vao-ExUY7-20" value="Jurídica" style="whiteSpace=wrap;html=1;align=center;" parent="1" vertex="1">
          <mxGeometry x="500" y="280" width="100" height="40" as="geometry" />
        </mxCell>
        <mxCell id="3ovZpFwWh21vao-ExUY7-22" style="edgeStyle=orthogonalEdgeStyle;rounded=0;orthogonalLoop=1;jettySize=auto;html=1;entryX=0;entryY=0.25;entryDx=0;entryDy=0;" parent="1" source="3ovZpFwWh21vao-ExUY7-21" target="3ovZpFwWh21vao-ExUY7-17" edge="1">
          <mxGeometry relative="1" as="geometry" />
        </mxCell>
        <mxCell id="3ovZpFwWh21vao-ExUY7-27" style="edgeStyle=orthogonalEdgeStyle;rounded=0;orthogonalLoop=1;jettySize=auto;html=1;entryX=0.5;entryY=1;entryDx=0;entryDy=0;" parent="1" source="3ovZpFwWh21vao-ExUY7-21" target="3ovZpFwWh21vao-ExUY7-25" edge="1">
          <mxGeometry relative="1" as="geometry" />
        </mxCell>
        <mxCell id="3ovZpFwWh21vao-ExUY7-28" style="edgeStyle=orthogonalEdgeStyle;rounded=0;orthogonalLoop=1;jettySize=auto;html=1;entryX=0;entryY=1;entryDx=0;entryDy=0;" parent="1" source="3ovZpFwWh21vao-ExUY7-21" target="3ovZpFwWh21vao-ExUY7-26" edge="1">
          <mxGeometry relative="1" as="geometry">
            <Array as="points">
              <mxPoint x="190" y="280" />
              <mxPoint x="190" y="280" />
            </Array>
          </mxGeometry>
        </mxCell>
        <mxCell id="3ovZpFwWh21vao-ExUY7-21" value="Nombre" style="ellipse;whiteSpace=wrap;html=1;align=center;" parent="1" vertex="1">
          <mxGeometry x="110" y="280" width="100" height="40" as="geometry" />
        </mxCell>
        <mxCell id="3ovZpFwWh21vao-ExUY7-24" style="edgeStyle=orthogonalEdgeStyle;rounded=0;orthogonalLoop=1;jettySize=auto;html=1;entryX=0;entryY=0.5;entryDx=0;entryDy=0;exitX=0.5;exitY=1;exitDx=0;exitDy=0;" parent="1" source="3ovZpFwWh21vao-ExUY7-23" target="3ovZpFwWh21vao-ExUY7-21" edge="1">
          <mxGeometry relative="1" as="geometry">
            <Array as="points">
              <mxPoint x="60" y="300" />
            </Array>
          </mxGeometry>
        </mxCell>
        <mxCell id="3ovZpFwWh21vao-ExUY7-23" value="Nombres" style="ellipse;whiteSpace=wrap;html=1;align=center;" parent="1" vertex="1">
          <mxGeometry x="20" y="240" width="80" height="20" as="geometry" />
        </mxCell>
        <mxCell id="3ovZpFwWh21vao-ExUY7-25" value="Apellido P." style="ellipse;whiteSpace=wrap;html=1;align=center;" parent="1" vertex="1">
          <mxGeometry x="100" y="220" width="80" height="30" as="geometry" />
        </mxCell>
        <mxCell id="3ovZpFwWh21vao-ExUY7-26" value="Apellido M." style="ellipse;whiteSpace=wrap;html=1;align=center;" parent="1" vertex="1">
          <mxGeometry x="190" y="235" width="70" height="30" as="geometry" />
        </mxCell>
        <mxCell id="3ovZpFwWh21vao-ExUY7-30" style="edgeStyle=orthogonalEdgeStyle;rounded=0;orthogonalLoop=1;jettySize=auto;html=1;entryX=0;entryY=1;entryDx=0;entryDy=0;" parent="1" source="3ovZpFwWh21vao-ExUY7-29" target="3ovZpFwWh21vao-ExUY7-17" edge="1">
          <mxGeometry relative="1" as="geometry">
            <Array as="points">
              <mxPoint x="100" y="340" />
              <mxPoint x="230" y="340" />
            </Array>
          </mxGeometry>
        </mxCell>
        <mxCell id="3ovZpFwWh21vao-ExUY7-29" value="Fecha_nac." style="ellipse;whiteSpace=wrap;html=1;align=center;" parent="1" vertex="1">
          <mxGeometry x="50" y="360" width="100" height="40" as="geometry" />
        </mxCell>
        <mxCell id="3ovZpFwWh21vao-ExUY7-32" style="edgeStyle=orthogonalEdgeStyle;rounded=0;orthogonalLoop=1;jettySize=auto;html=1;entryX=0.5;entryY=1;entryDx=0;entryDy=0;" parent="1" source="3ovZpFwWh21vao-ExUY7-31" target="3ovZpFwWh21vao-ExUY7-17" edge="1">
          <mxGeometry relative="1" as="geometry" />
        </mxCell>
        <mxCell id="3ovZpFwWh21vao-ExUY7-31" value="Edad." style="ellipse;whiteSpace=wrap;html=1;align=center;dashed=1;" parent="1" vertex="1">
          <mxGeometry x="190" y="360" width="100" height="40" as="geometry" />
        </mxCell>
      </root>
    </mxGraphModel>
  </diagram>
  <diagram id="c7RoRObAXvQljqgbU8Wg" name="Page-2">
    <mxGraphModel dx="1422" dy="794" grid="1" gridSize="10" guides="1" tooltips="1" connect="1" arrows="1" fold="1" page="1" pageScale="1" pageWidth="827" pageHeight="1169" math="0" shadow="0">
      <root>
        <mxCell id="0" />
        <mxCell id="1" parent="0" />
        <mxCell id="ngnpzMp1GbzGolcboVhp-2" style="edgeStyle=none;rounded=0;orthogonalLoop=1;jettySize=auto;html=1;entryX=0.5;entryY=0;entryDx=0;entryDy=0;" parent="1" source="ngnpzMp1GbzGolcboVhp-1" target="ngnpzMp1GbzGolcboVhp-4" edge="1">
          <mxGeometry relative="1" as="geometry">
            <mxPoint x="414" y="170" as="targetPoint" />
          </mxGeometry>
        </mxCell>
        <mxCell id="ngnpzMp1GbzGolcboVhp-1" value="Galeria de arte" style="whiteSpace=wrap;html=1;align=center;" parent="1" vertex="1">
          <mxGeometry x="350" y="40" width="100" height="40" as="geometry" />
        </mxCell>
        <mxCell id="V7YdDFcKFDxNsvq9W87_-1" style="edgeStyle=none;rounded=0;orthogonalLoop=1;jettySize=auto;html=1;exitX=0.5;exitY=1;exitDx=0;exitDy=0;" edge="1" parent="1" source="ngnpzMp1GbzGolcboVhp-4">
          <mxGeometry relative="1" as="geometry">
            <mxPoint x="400" y="250" as="targetPoint" />
          </mxGeometry>
        </mxCell>
        <mxCell id="ngnpzMp1GbzGolcboVhp-4" value="Tiene" style="shape=rhombus;perimeter=rhombusPerimeter;whiteSpace=wrap;html=1;align=center;" parent="1" vertex="1">
          <mxGeometry x="340" y="120" width="120" height="60" as="geometry" />
        </mxCell>
        <mxCell id="SWXkJH2K5FfAt-d1wfQr-8" style="edgeStyle=none;rounded=0;orthogonalLoop=1;jettySize=auto;html=1;exitX=0;exitY=0.5;exitDx=0;exitDy=0;entryX=1;entryY=0.5;entryDx=0;entryDy=0;" edge="1" parent="1" source="ngnpzMp1GbzGolcboVhp-5" target="SWXkJH2K5FfAt-d1wfQr-11">
          <mxGeometry relative="1" as="geometry">
            <mxPoint x="120" y="280.86" as="targetPoint" />
          </mxGeometry>
        </mxCell>
        <mxCell id="w61mbfxm6WlNBGSFAjWo-35" style="edgeStyle=none;rounded=0;orthogonalLoop=1;jettySize=auto;html=1;exitX=0.25;exitY=0;exitDx=0;exitDy=0;" edge="1" parent="1" source="ngnpzMp1GbzGolcboVhp-5" target="w61mbfxm6WlNBGSFAjWo-36">
          <mxGeometry relative="1" as="geometry">
            <mxPoint x="185" y="160" as="targetPoint" />
          </mxGeometry>
        </mxCell>
        <mxCell id="w61mbfxm6WlNBGSFAjWo-90" style="edgeStyle=none;rounded=0;orthogonalLoop=1;jettySize=auto;html=1;exitX=0;exitY=0;exitDx=0;exitDy=0;entryX=1;entryY=0.75;entryDx=0;entryDy=0;entryPerimeter=0;" edge="1" parent="1" source="ngnpzMp1GbzGolcboVhp-5" target="SWXkJH2K5FfAt-d1wfQr-9">
          <mxGeometry relative="1" as="geometry" />
        </mxCell>
        <mxCell id="w61mbfxm6WlNBGSFAjWo-91" style="edgeStyle=none;rounded=0;orthogonalLoop=1;jettySize=auto;html=1;exitX=0;exitY=0.5;exitDx=0;exitDy=0;entryX=1;entryY=0.5;entryDx=0;entryDy=0;" edge="1" parent="1" source="ngnpzMp1GbzGolcboVhp-5" target="SWXkJH2K5FfAt-d1wfQr-10">
          <mxGeometry relative="1" as="geometry" />
        </mxCell>
        <mxCell id="ngnpzMp1GbzGolcboVhp-5" value="Obras" style="whiteSpace=wrap;html=1;align=center;" parent="1" vertex="1">
          <mxGeometry x="376.25" y="720" width="100" height="40" as="geometry" />
        </mxCell>
        <mxCell id="SWXkJH2K5FfAt-d1wfQr-9" value="Titulo" style="ellipse;whiteSpace=wrap;html=1;" vertex="1" parent="1">
          <mxGeometry x="240" y="660" width="100" height="40" as="geometry" />
        </mxCell>
        <mxCell id="SWXkJH2K5FfAt-d1wfQr-10" value="creador" style="ellipse;whiteSpace=wrap;html=1;" vertex="1" parent="1">
          <mxGeometry x="250" y="720" width="100" height="40" as="geometry" />
        </mxCell>
        <mxCell id="SWXkJH2K5FfAt-d1wfQr-11" value="fecha de creacion" style="ellipse;whiteSpace=wrap;html=1;" vertex="1" parent="1">
          <mxGeometry x="250" y="770" width="100" height="40" as="geometry" />
        </mxCell>
        <mxCell id="w61mbfxm6WlNBGSFAjWo-2" style="edgeStyle=orthogonalEdgeStyle;rounded=0;orthogonalLoop=1;jettySize=auto;html=1;entryX=0.5;entryY=0;entryDx=0;entryDy=0;entryPerimeter=0;" edge="1" parent="1" source="w61mbfxm6WlNBGSFAjWo-3" target="w61mbfxm6WlNBGSFAjWo-11">
          <mxGeometry relative="1" as="geometry" />
        </mxCell>
        <mxCell id="w61mbfxm6WlNBGSFAjWo-26" style="edgeStyle=none;rounded=0;orthogonalLoop=1;jettySize=auto;html=1;exitX=1;exitY=0;exitDx=0;exitDy=0;entryX=0.08;entryY=0.8;entryDx=0;entryDy=0;entryPerimeter=0;" edge="1" parent="1" source="w61mbfxm6WlNBGSFAjWo-3" target="w61mbfxm6WlNBGSFAjWo-4">
          <mxGeometry relative="1" as="geometry">
            <mxPoint x="484.64466094067257" y="190.00213562373108" as="targetPoint" />
          </mxGeometry>
        </mxCell>
        <mxCell id="w61mbfxm6WlNBGSFAjWo-27" style="edgeStyle=none;rounded=0;orthogonalLoop=1;jettySize=auto;html=1;exitX=1;exitY=0.5;exitDx=0;exitDy=0;entryX=0;entryY=0.5;entryDx=0;entryDy=0;" edge="1" parent="1" source="w61mbfxm6WlNBGSFAjWo-3" target="w61mbfxm6WlNBGSFAjWo-8">
          <mxGeometry relative="1" as="geometry" />
        </mxCell>
        <mxCell id="w61mbfxm6WlNBGSFAjWo-28" style="edgeStyle=none;rounded=0;orthogonalLoop=1;jettySize=auto;html=1;exitX=1;exitY=1;exitDx=0;exitDy=0;" edge="1" parent="1" source="w61mbfxm6WlNBGSFAjWo-3" target="w61mbfxm6WlNBGSFAjWo-6">
          <mxGeometry relative="1" as="geometry" />
        </mxCell>
        <mxCell id="w61mbfxm6WlNBGSFAjWo-42" style="edgeStyle=none;rounded=0;orthogonalLoop=1;jettySize=auto;html=1;exitX=0.75;exitY=0;exitDx=0;exitDy=0;entryX=0;entryY=1;entryDx=0;entryDy=0;" edge="1" parent="1" source="w61mbfxm6WlNBGSFAjWo-3" target="w61mbfxm6WlNBGSFAjWo-17">
          <mxGeometry relative="1" as="geometry" />
        </mxCell>
        <mxCell id="w61mbfxm6WlNBGSFAjWo-59" style="edgeStyle=none;rounded=0;orthogonalLoop=1;jettySize=auto;html=1;exitX=1;exitY=0.5;exitDx=0;exitDy=0;entryX=0;entryY=0.5;entryDx=0;entryDy=0;" edge="1" parent="1" source="w61mbfxm6WlNBGSFAjWo-3" target="w61mbfxm6WlNBGSFAjWo-58">
          <mxGeometry relative="1" as="geometry" />
        </mxCell>
        <mxCell id="w61mbfxm6WlNBGSFAjWo-63" style="edgeStyle=none;rounded=0;orthogonalLoop=1;jettySize=auto;html=1;exitX=0.5;exitY=0;exitDx=0;exitDy=0;entryX=0.02;entryY=0.75;entryDx=0;entryDy=0;entryPerimeter=0;" edge="1" parent="1" source="w61mbfxm6WlNBGSFAjWo-3">
          <mxGeometry relative="1" as="geometry">
            <mxPoint x="522" y="95" as="targetPoint" />
          </mxGeometry>
        </mxCell>
        <mxCell id="w61mbfxm6WlNBGSFAjWo-3" value="Persona" style="whiteSpace=wrap;html=1;align=center;" vertex="1" parent="1">
          <mxGeometry x="350" y="250.86" width="100" height="35" as="geometry" />
        </mxCell>
        <mxCell id="w61mbfxm6WlNBGSFAjWo-4" value="Rut" style="ellipse;whiteSpace=wrap;html=1;align=center;fontStyle=4;" vertex="1" parent="1">
          <mxGeometry x="514" y="170" width="100" height="30" as="geometry" />
        </mxCell>
        <mxCell id="w61mbfxm6WlNBGSFAjWo-6" value="Correos" style="ellipse;shape=doubleEllipse;margin=3;whiteSpace=wrap;html=1;align=center;" vertex="1" parent="1">
          <mxGeometry x="520" y="270.86" width="100" height="40" as="geometry" />
        </mxCell>
        <mxCell id="w61mbfxm6WlNBGSFAjWo-8" value="Teléfonos" style="ellipse;shape=doubleEllipse;margin=3;whiteSpace=wrap;html=1;align=center;" vertex="1" parent="1">
          <mxGeometry x="514" y="210" width="100" height="40.86" as="geometry" />
        </mxCell>
        <mxCell id="w61mbfxm6WlNBGSFAjWo-9" style="edgeStyle=orthogonalEdgeStyle;rounded=0;orthogonalLoop=1;jettySize=auto;html=1;exitX=0.01;exitY=0.97;exitDx=0;exitDy=0;exitPerimeter=0;entryX=0.5;entryY=0;entryDx=0;entryDy=0;" edge="1" parent="1" source="w61mbfxm6WlNBGSFAjWo-11" target="w61mbfxm6WlNBGSFAjWo-12">
          <mxGeometry relative="1" as="geometry">
            <mxPoint x="180" y="385.86" as="targetPoint" />
            <Array as="points">
              <mxPoint x="290" y="334.86" />
            </Array>
          </mxGeometry>
        </mxCell>
        <mxCell id="w61mbfxm6WlNBGSFAjWo-29" style="edgeStyle=none;rounded=0;orthogonalLoop=1;jettySize=auto;html=1;entryX=0.5;entryY=0;entryDx=0;entryDy=0;exitX=0.921;exitY=0.767;exitDx=0;exitDy=0;exitPerimeter=0;" edge="1" parent="1" source="w61mbfxm6WlNBGSFAjWo-11" target="w61mbfxm6WlNBGSFAjWo-13">
          <mxGeometry relative="1" as="geometry">
            <mxPoint x="420" y="330.86" as="sourcePoint" />
            <Array as="points">
              <mxPoint x="464" y="333.86" />
            </Array>
          </mxGeometry>
        </mxCell>
        <mxCell id="w61mbfxm6WlNBGSFAjWo-33" style="edgeStyle=none;rounded=0;orthogonalLoop=1;jettySize=auto;html=1;exitX=0.78;exitY=0.5;exitDx=0;exitDy=0;exitPerimeter=0;entryX=0.5;entryY=0;entryDx=0;entryDy=0;" edge="1" parent="1" source="w61mbfxm6WlNBGSFAjWo-11" target="w61mbfxm6WlNBGSFAjWo-32">
          <mxGeometry relative="1" as="geometry">
            <Array as="points">
              <mxPoint x="540" y="326" />
              <mxPoint x="550" y="330" />
            </Array>
          </mxGeometry>
        </mxCell>
        <mxCell id="w61mbfxm6WlNBGSFAjWo-37" style="edgeStyle=none;rounded=0;orthogonalLoop=1;jettySize=auto;html=1;exitX=0.5;exitY=0;exitDx=0;exitDy=0;exitPerimeter=0;entryX=0.5;entryY=0;entryDx=0;entryDy=0;" edge="1" parent="1" source="w61mbfxm6WlNBGSFAjWo-11" target="w61mbfxm6WlNBGSFAjWo-38">
          <mxGeometry relative="1" as="geometry">
            <mxPoint x="770" y="400" as="targetPoint" />
            <Array as="points">
              <mxPoint x="720" y="320" />
              <mxPoint x="740" y="320" />
            </Array>
          </mxGeometry>
        </mxCell>
        <mxCell id="w61mbfxm6WlNBGSFAjWo-11" value="Es" style="strokeWidth=2;html=1;shape=mxgraph.flowchart.extract_or_measurement;whiteSpace=wrap;" vertex="1" parent="1">
          <mxGeometry x="376.25" y="310.86" width="47.5" height="30" as="geometry" />
        </mxCell>
        <mxCell id="w61mbfxm6WlNBGSFAjWo-68" style="edgeStyle=none;rounded=0;orthogonalLoop=1;jettySize=auto;html=1;exitX=0.25;exitY=1;exitDx=0;exitDy=0;entryX=0.5;entryY=0;entryDx=0;entryDy=0;" edge="1" parent="1" source="w61mbfxm6WlNBGSFAjWo-12" target="w61mbfxm6WlNBGSFAjWo-67">
          <mxGeometry relative="1" as="geometry" />
        </mxCell>
        <mxCell id="w61mbfxm6WlNBGSFAjWo-106" style="edgeStyle=none;rounded=0;orthogonalLoop=1;jettySize=auto;html=1;exitX=0;exitY=1;exitDx=0;exitDy=0;entryX=0.5;entryY=0;entryDx=0;entryDy=0;entryPerimeter=0;" edge="1" parent="1" source="w61mbfxm6WlNBGSFAjWo-12" target="w61mbfxm6WlNBGSFAjWo-95">
          <mxGeometry relative="1" as="geometry" />
        </mxCell>
        <mxCell id="w61mbfxm6WlNBGSFAjWo-107" style="edgeStyle=none;rounded=0;orthogonalLoop=1;jettySize=auto;html=1;exitX=1;exitY=1;exitDx=0;exitDy=0;entryX=0;entryY=0;entryDx=0;entryDy=0;" edge="1" parent="1" source="w61mbfxm6WlNBGSFAjWo-12" target="ngnpzMp1GbzGolcboVhp-5">
          <mxGeometry relative="1" as="geometry">
            <Array as="points">
              <mxPoint x="330" y="640" />
            </Array>
          </mxGeometry>
        </mxCell>
        <mxCell id="w61mbfxm6WlNBGSFAjWo-12" value="Artista" style="whiteSpace=wrap;html=1;align=center;" vertex="1" parent="1">
          <mxGeometry x="210" y="517.5" width="100" height="40" as="geometry" />
        </mxCell>
        <mxCell id="w61mbfxm6WlNBGSFAjWo-50" style="edgeStyle=none;rounded=0;orthogonalLoop=1;jettySize=auto;html=1;exitX=0.5;exitY=1;exitDx=0;exitDy=0;entryX=0.5;entryY=0;entryDx=0;entryDy=0;" edge="1" parent="1" source="w61mbfxm6WlNBGSFAjWo-13" target="w61mbfxm6WlNBGSFAjWo-53">
          <mxGeometry relative="1" as="geometry">
            <mxPoint x="464" y="480" as="targetPoint" />
          </mxGeometry>
        </mxCell>
        <mxCell id="w61mbfxm6WlNBGSFAjWo-57" style="edgeStyle=none;rounded=0;orthogonalLoop=1;jettySize=auto;html=1;exitX=0.5;exitY=1;exitDx=0;exitDy=0;entryX=0.5;entryY=0;entryDx=0;entryDy=0;" edge="1" parent="1" source="w61mbfxm6WlNBGSFAjWo-13" target="w61mbfxm6WlNBGSFAjWo-56">
          <mxGeometry relative="1" as="geometry" />
        </mxCell>
        <mxCell id="w61mbfxm6WlNBGSFAjWo-80" style="edgeStyle=none;rounded=0;orthogonalLoop=1;jettySize=auto;html=1;exitX=0.5;exitY=1;exitDx=0;exitDy=0;" edge="1" parent="1" source="w61mbfxm6WlNBGSFAjWo-13">
          <mxGeometry relative="1" as="geometry">
            <mxPoint x="452.45318230832686" y="520.0240869179124" as="targetPoint" />
          </mxGeometry>
        </mxCell>
        <mxCell id="w61mbfxm6WlNBGSFAjWo-13" value="Comprador" style="whiteSpace=wrap;html=1;align=center;" vertex="1" parent="1">
          <mxGeometry x="414" y="385.86" width="100" height="40" as="geometry" />
        </mxCell>
        <mxCell id="w61mbfxm6WlNBGSFAjWo-44" style="edgeStyle=none;rounded=0;orthogonalLoop=1;jettySize=auto;html=1;exitX=1;exitY=0;exitDx=0;exitDy=0;entryX=0.043;entryY=0.867;entryDx=0;entryDy=0;entryPerimeter=0;" edge="1" parent="1" source="w61mbfxm6WlNBGSFAjWo-17" target="w61mbfxm6WlNBGSFAjWo-21">
          <mxGeometry relative="1" as="geometry" />
        </mxCell>
        <mxCell id="w61mbfxm6WlNBGSFAjWo-45" style="edgeStyle=none;rounded=0;orthogonalLoop=1;jettySize=auto;html=1;exitX=1;exitY=1;exitDx=0;exitDy=0;entryX=0;entryY=0.5;entryDx=0;entryDy=0;" edge="1" parent="1" source="w61mbfxm6WlNBGSFAjWo-17" target="w61mbfxm6WlNBGSFAjWo-19">
          <mxGeometry relative="1" as="geometry" />
        </mxCell>
        <mxCell id="w61mbfxm6WlNBGSFAjWo-46" style="edgeStyle=none;rounded=0;orthogonalLoop=1;jettySize=auto;html=1;exitX=1;exitY=0.5;exitDx=0;exitDy=0;entryX=0;entryY=0.5;entryDx=0;entryDy=0;" edge="1" parent="1" source="w61mbfxm6WlNBGSFAjWo-17" target="w61mbfxm6WlNBGSFAjWo-20">
          <mxGeometry relative="1" as="geometry" />
        </mxCell>
        <mxCell id="w61mbfxm6WlNBGSFAjWo-17" value="Nombre" style="ellipse;whiteSpace=wrap;html=1;align=center;" vertex="1" parent="1">
          <mxGeometry x="514" y="115" width="100" height="40" as="geometry" />
        </mxCell>
        <mxCell id="w61mbfxm6WlNBGSFAjWo-19" value="Nombres" style="ellipse;whiteSpace=wrap;html=1;align=center;" vertex="1" parent="1">
          <mxGeometry x="630" y="170" width="80" height="20" as="geometry" />
        </mxCell>
        <mxCell id="w61mbfxm6WlNBGSFAjWo-20" value="Apellido P." style="ellipse;whiteSpace=wrap;html=1;align=center;" vertex="1" parent="1">
          <mxGeometry x="630" y="120" width="80" height="30" as="geometry" />
        </mxCell>
        <mxCell id="w61mbfxm6WlNBGSFAjWo-21" value="Apellido M." style="ellipse;whiteSpace=wrap;html=1;align=center;" vertex="1" parent="1">
          <mxGeometry x="635" y="70" width="70" height="30" as="geometry" />
        </mxCell>
        <mxCell id="w61mbfxm6WlNBGSFAjWo-73" style="edgeStyle=none;rounded=0;orthogonalLoop=1;jettySize=auto;html=1;exitX=0.25;exitY=1;exitDx=0;exitDy=0;entryX=0.5;entryY=0;entryDx=0;entryDy=0;" edge="1" parent="1" source="w61mbfxm6WlNBGSFAjWo-32" target="w61mbfxm6WlNBGSFAjWo-69">
          <mxGeometry relative="1" as="geometry" />
        </mxCell>
        <mxCell id="w61mbfxm6WlNBGSFAjWo-74" style="edgeStyle=none;rounded=0;orthogonalLoop=1;jettySize=auto;html=1;exitX=0.75;exitY=1;exitDx=0;exitDy=0;entryX=0.5;entryY=0;entryDx=0;entryDy=0;" edge="1" parent="1" source="w61mbfxm6WlNBGSFAjWo-32" target="w61mbfxm6WlNBGSFAjWo-71">
          <mxGeometry relative="1" as="geometry" />
        </mxCell>
        <mxCell id="w61mbfxm6WlNBGSFAjWo-32" value="Personal de venta" style="whiteSpace=wrap;html=1;align=center;" vertex="1" parent="1">
          <mxGeometry x="580" y="385.86" width="100" height="40" as="geometry" />
        </mxCell>
        <mxCell id="w61mbfxm6WlNBGSFAjWo-36" value="Precio definido" style="ellipse;whiteSpace=wrap;html=1;" vertex="1" parent="1">
          <mxGeometry x="340" y="630" width="90" height="30" as="geometry" />
        </mxCell>
        <mxCell id="w61mbfxm6WlNBGSFAjWo-75" style="edgeStyle=none;rounded=0;orthogonalLoop=1;jettySize=auto;html=1;exitX=0.5;exitY=1;exitDx=0;exitDy=0;entryX=0.5;entryY=0;entryDx=0;entryDy=0;" edge="1" parent="1" source="w61mbfxm6WlNBGSFAjWo-38" target="w61mbfxm6WlNBGSFAjWo-76">
          <mxGeometry relative="1" as="geometry">
            <mxPoint x="760" y="480" as="targetPoint" />
          </mxGeometry>
        </mxCell>
        <mxCell id="w61mbfxm6WlNBGSFAjWo-78" style="edgeStyle=none;rounded=0;orthogonalLoop=1;jettySize=auto;html=1;exitX=0.5;exitY=1;exitDx=0;exitDy=0;entryX=0.5;entryY=0;entryDx=0;entryDy=0;" edge="1" parent="1" source="w61mbfxm6WlNBGSFAjWo-38" target="w61mbfxm6WlNBGSFAjWo-77">
          <mxGeometry relative="1" as="geometry" />
        </mxCell>
        <mxCell id="w61mbfxm6WlNBGSFAjWo-38" value="Personal administrativo" style="whiteSpace=wrap;html=1;align=center;" vertex="1" parent="1">
          <mxGeometry x="710" y="385.86" width="100" height="40" as="geometry" />
        </mxCell>
        <mxCell id="w61mbfxm6WlNBGSFAjWo-53" value="Dienro" style="ellipse;whiteSpace=wrap;html=1;align=center;" vertex="1" parent="1">
          <mxGeometry x="350" y="470" width="100" height="40" as="geometry" />
        </mxCell>
        <mxCell id="w61mbfxm6WlNBGSFAjWo-56" value="Rut_comprador" style="ellipse;whiteSpace=wrap;html=1;align=center;" vertex="1" parent="1">
          <mxGeometry x="465" y="470" width="100" height="40" as="geometry" />
        </mxCell>
        <mxCell id="w61mbfxm6WlNBGSFAjWo-58" value="Fecha_nac." style="ellipse;whiteSpace=wrap;html=1;align=center;" vertex="1" parent="1">
          <mxGeometry x="630" y="245.86" width="100" height="40" as="geometry" />
        </mxCell>
        <mxCell id="w61mbfxm6WlNBGSFAjWo-62" style="edgeStyle=none;rounded=0;orthogonalLoop=1;jettySize=auto;html=1;entryX=0;entryY=0.5;entryDx=0;entryDy=0;" edge="1" parent="1">
          <mxGeometry relative="1" as="geometry">
            <mxPoint x="520" y="85" as="sourcePoint" />
            <mxPoint x="520" y="85" as="targetPoint" />
          </mxGeometry>
        </mxCell>
        <mxCell id="w61mbfxm6WlNBGSFAjWo-66" value="edad" style="ellipse;whiteSpace=wrap;html=1;align=center;dashed=1;" vertex="1" parent="1">
          <mxGeometry x="520" y="70" width="100" height="40" as="geometry" />
        </mxCell>
        <mxCell id="w61mbfxm6WlNBGSFAjWo-67" value="Rut_artista" style="ellipse;whiteSpace=wrap;html=1;align=center;" vertex="1" parent="1">
          <mxGeometry x="150" y="440" width="100" height="40" as="geometry" />
        </mxCell>
        <mxCell id="w61mbfxm6WlNBGSFAjWo-108" style="edgeStyle=none;rounded=0;orthogonalLoop=1;jettySize=auto;html=1;exitX=0;exitY=1;exitDx=0;exitDy=0;entryX=0.5;entryY=0;entryDx=0;entryDy=0;" edge="1" parent="1" source="w61mbfxm6WlNBGSFAjWo-69" target="w61mbfxm6WlNBGSFAjWo-102">
          <mxGeometry relative="1" as="geometry" />
        </mxCell>
        <mxCell id="w61mbfxm6WlNBGSFAjWo-69" value="dueño" style="ellipse;whiteSpace=wrap;html=1;align=center;" vertex="1" parent="1">
          <mxGeometry x="520" y="560" width="70" height="40" as="geometry" />
        </mxCell>
        <mxCell id="w61mbfxm6WlNBGSFAjWo-71" value="asociados de venta" style="ellipse;whiteSpace=wrap;html=1;align=center;" vertex="1" parent="1">
          <mxGeometry x="605" y="560" width="100" height="40" as="geometry" />
        </mxCell>
        <mxCell id="w61mbfxm6WlNBGSFAjWo-76" value="Sueldo" style="ellipse;whiteSpace=wrap;html=1;align=center;" vertex="1" parent="1">
          <mxGeometry x="680" y="440" width="70" height="40" as="geometry" />
        </mxCell>
        <mxCell id="w61mbfxm6WlNBGSFAjWo-77" value="Identificacion" style="ellipse;whiteSpace=wrap;html=1;align=center;" vertex="1" parent="1">
          <mxGeometry x="710" y="490" width="100" height="40" as="geometry" />
        </mxCell>
        <mxCell id="w61mbfxm6WlNBGSFAjWo-112" style="edgeStyle=none;rounded=0;orthogonalLoop=1;jettySize=auto;html=1;exitX=0;exitY=0.5;exitDx=0;exitDy=0;entryX=1;entryY=0.5;entryDx=0;entryDy=0;" edge="1" parent="1" source="w61mbfxm6WlNBGSFAjWo-84" target="w61mbfxm6WlNBGSFAjWo-111">
          <mxGeometry relative="1" as="geometry" />
        </mxCell>
        <mxCell id="w61mbfxm6WlNBGSFAjWo-84" value="Precio ofertado" style="ellipse;whiteSpace=wrap;html=1;align=center;dashed=1;" vertex="1" parent="1">
          <mxGeometry x="414" y="520" width="100" height="40" as="geometry" />
        </mxCell>
        <mxCell id="w61mbfxm6WlNBGSFAjWo-97" style="edgeStyle=none;rounded=0;orthogonalLoop=1;jettySize=auto;html=1;exitX=0.01;exitY=0.97;exitDx=0;exitDy=0;exitPerimeter=0;entryX=0.5;entryY=0;entryDx=0;entryDy=0;" edge="1" parent="1" source="w61mbfxm6WlNBGSFAjWo-95" target="w61mbfxm6WlNBGSFAjWo-98">
          <mxGeometry relative="1" as="geometry">
            <mxPoint x="329" y="680" as="targetPoint" />
          </mxGeometry>
        </mxCell>
        <mxCell id="w61mbfxm6WlNBGSFAjWo-100" style="edgeStyle=none;rounded=0;orthogonalLoop=1;jettySize=auto;html=1;exitX=0.99;exitY=0.97;exitDx=0;exitDy=0;exitPerimeter=0;entryX=0.5;entryY=0;entryDx=0;entryDy=0;" edge="1" parent="1" source="w61mbfxm6WlNBGSFAjWo-95" target="w61mbfxm6WlNBGSFAjWo-101">
          <mxGeometry relative="1" as="geometry">
            <mxPoint x="410" y="680" as="targetPoint" />
          </mxGeometry>
        </mxCell>
        <mxCell id="w61mbfxm6WlNBGSFAjWo-95" value="Es" style="strokeWidth=2;html=1;shape=mxgraph.flowchart.extract_or_measurement;whiteSpace=wrap;" vertex="1" parent="1">
          <mxGeometry x="110" y="610" width="47.5" height="30" as="geometry" />
        </mxCell>
        <mxCell id="w61mbfxm6WlNBGSFAjWo-98" value="famoso" style="ellipse;whiteSpace=wrap;html=1;" vertex="1" parent="1">
          <mxGeometry x="30" y="680" width="100" height="40" as="geometry" />
        </mxCell>
        <mxCell id="w61mbfxm6WlNBGSFAjWo-101" value="no famoso" style="ellipse;whiteSpace=wrap;html=1;" vertex="1" parent="1">
          <mxGeometry x="140" y="680" width="100" height="40" as="geometry" />
        </mxCell>
        <mxCell id="w61mbfxm6WlNBGSFAjWo-109" style="edgeStyle=none;rounded=0;orthogonalLoop=1;jettySize=auto;html=1;exitX=0.5;exitY=1;exitDx=0;exitDy=0;entryX=1;entryY=0;entryDx=0;entryDy=0;" edge="1" parent="1" source="w61mbfxm6WlNBGSFAjWo-102" target="ngnpzMp1GbzGolcboVhp-5">
          <mxGeometry relative="1" as="geometry" />
        </mxCell>
        <mxCell id="w61mbfxm6WlNBGSFAjWo-102" value="selecciona" style="shape=rhombus;perimeter=rhombusPerimeter;whiteSpace=wrap;html=1;align=center;" vertex="1" parent="1">
          <mxGeometry x="492" y="640" width="73" height="50" as="geometry" />
        </mxCell>
        <mxCell id="w61mbfxm6WlNBGSFAjWo-105" style="edgeStyle=none;rounded=0;orthogonalLoop=1;jettySize=auto;html=1;exitX=0.5;exitY=1;exitDx=0;exitDy=0;" edge="1" parent="1" source="SWXkJH2K5FfAt-d1wfQr-9" target="SWXkJH2K5FfAt-d1wfQr-9">
          <mxGeometry relative="1" as="geometry" />
        </mxCell>
        <mxCell id="w61mbfxm6WlNBGSFAjWo-113" style="edgeStyle=none;rounded=0;orthogonalLoop=1;jettySize=auto;html=1;exitX=0;exitY=0.5;exitDx=0;exitDy=0;entryX=1;entryY=0.5;entryDx=0;entryDy=0;" edge="1" parent="1" source="w61mbfxm6WlNBGSFAjWo-111" target="w61mbfxm6WlNBGSFAjWo-12">
          <mxGeometry relative="1" as="geometry" />
        </mxCell>
        <mxCell id="w61mbfxm6WlNBGSFAjWo-111" value="depende" style="shape=rhombus;perimeter=rhombusPerimeter;whiteSpace=wrap;html=1;align=center;" vertex="1" parent="1">
          <mxGeometry x="350" y="517.5" width="51.5" height="45" as="geometry" />
        </mxCell>
      </root>
    </mxGraphModel>
  </diagram>
</mxfile>
